<?xml version="1.0"?>
<svg xmlns="http://www.w3.org/2000/svg" id="Layer_1" data-name="Layer 1" viewBox="0 0 512 512" width="512" height="512"><title>Bank And Money</title><path d="M483.42,377.45a17.03,17.03,0,0,1,0,34.06H396.65l-.03-.02a57.25,57.25,0,0,0,11.32-34.04Z" style="fill:#e2d574"/><path d="M485.82,445.49a17.03,17.03,0,0,1-2.4,33.89H377.15a17.03,17.03,0,0,1-2.41-33.89,17.417,17.417,0,0,0,2.41.17H483.42A17.164,17.164,0,0,0,485.82,445.49Z" style="fill:#e2d574"/><path d="M483.42,411.59a17.035,17.035,0,0,1,2.4,33.9,15.763,15.763,0,0,0-2.4-.18H377.15a15.993,15.993,0,0,0-2.41.18,17.065,17.065,0,0,1-13.83-11.72,57.509,57.509,0,0,0,35.71-22.28l.03.02h86.77Z" style="fill:#f8ec7d"/><path d="M237.24,106.04a40.885,40.885,0,1,0-40.89,40.89A40.894,40.894,0,0,0,237.24,106.04Zm143.95,22.12v37.72H11.55V128.16L196.37,31.77Z" style="fill:#e48e66"/><path d="M355.69,187.09a21.049,21.049,0,1,1-42.09.6H278a21.051,21.051,0,1,1-21.05-21.05h77.26C345.68,166.64,355.37,175.63,355.69,187.09Z" style="fill:#6fe3ff"/><path d="M407.94,377.23v.22a57.5,57.5,0,0,1-47.03,56.32,58.137,58.137,0,0,1-10.46.95c-.59,0-1.18-.01-1.76-.03s-1.17-.04-1.75-.08c-.49-.02-.98-.06-1.47-.11a4.8,4.8,0,0,1-.52-.05c-.43-.03-.86-.08-1.3-.13l-.22-.03c-.55-.06-1.1-.14-1.65-.22-.5-.08-1-.16-1.5-.25a2.325,2.325,0,0,1-.28-.05h-.01c-.39-.07-.79-.15-1.18-.23-.27-.06-.53-.11-.79-.17-.39-.08-.78-.17-1.16-.27a1.17,1.17,0,0,1-.2-.05c-.36-.08-.71-.17-1.06-.27-.24-.06-.48-.13-.72-.19-1.08-.31-2.15-.64-3.2-1.01-.45-.15-.9-.31-1.34-.48-1.1-.41-2.18-.85-3.25-1.33-.45-.2-.9-.4-1.34-.62q-.75-.345-1.47-.72c-.5-.25-.99-.52-1.48-.79-.43-.23-.86-.48-1.28-.73q-.81-.465-1.59-.96c-.42-.26-.84-.53-1.25-.81-.51-.33-1.01-.68-1.51-1.03-.88-.62-1.73-1.27-2.57-1.94-.35-.28-.7-.57-1.05-.86-.33-.27-.65-.55-.97-.83-.27-.23-.53-.46-.78-.7-.39-.35-.77-.7-1.14-1.07-.32-.3-.63-.61-.94-.92-.39-.38-.77-.78-1.14-1.18-.36-.38-.72-.77-1.06-1.16a.764.764,0,0,1-.09-.09c-.35-.39-.69-.79-1.03-1.2s-.7-.84-1.04-1.27-.67-.86-1-1.3c-.02-.03-.04-.05-.06-.08-.2-.27-.39-.53-.59-.8-.31-.45-.63-.89-.93-1.34-.23-.35-.47-.7-.69-1.05a57.134,57.134,0,0,1-4.02-7.38c-.14-.29-.27-.59-.4-.89-.37-.84-.71-1.7-1.03-2.56-.1-.25-.19-.51-.28-.76-.13-.36-.26-.72-.38-1.08q-.375-1.08-.69-2.19c-.09-.28-.17-.57-.25-.85-.23-.82-.44-1.66-.63-2.49-.1-.43-.19-.87-.28-1.31-.15-.7-.28-1.41-.39-2.12-.07-.38-.13-.77-.18-1.16-.24-1.62-.41-3.25-.5-4.91-.02-.3-.03-.6-.05-.89l-.03-1.02c-.01-.42-.02-.84-.02-1.26v-.22a57.262,57.262,0,0,1,11.08-33.93c.02-.03.04-.05.06-.08a57.494,57.494,0,0,1,103.84,34.01Z" style="fill:#6fe3ff"/><path d="M338.81,433.54c.39.08.79.16,1.18.23a17.011,17.011,0,0,1-16.23,11.89H217.49a17.031,17.031,0,0,1-16.74-13.89,16.307,16.307,0,0,1-.3-3.14,17.037,17.037,0,0,1,17.04-17.04h86.86c.33.44.67.87,1.01,1.3s.68.85,1.04,1.27c.33.41.68.81,1.03,1.2a.764.764,0,0,0,.09.09c.34.39.69.78,1.06,1.16.36.4.74.79,1.14,1.18.3.32.62.62.94.92.37.37.75.72,1.14,1.07.26.24.52.47.78.7.32.28.64.56.97.83.34.29.69.58,1.05.86.84.67,1.69,1.32,2.57,1.94.5.35,1,.7,1.51,1.03.41.28.83.55,1.25.81q.78.495,1.59.96c.42.26.85.5,1.28.73.49.27.98.54,1.48.79q.72.375,1.47.72c.44.22.89.42,1.34.62,1.07.48,2.15.92,3.25,1.33.45.17.89.33,1.34.48,1.05.37,2.12.7,3.2,1.01.24.06.48.13.72.19.35.1.71.19,1.06.27a1.17,1.17,0,0,0,.2.05c.38.1.77.19,1.16.27C338.28,433.43,338.54,433.49,338.81,433.54Z" style="fill:#e2d574"/><path d="M323.76,309.16a17.027,17.027,0,0,1,16.13,11.56,57.45,57.45,0,0,0-35.79,22.5H217.49a17.03,17.03,0,1,1,0-34.06Z" style="fill:#f8ec7d"/><path d="M323.76,275.09a17.035,17.035,0,0,1,0,34.07H217.49a17.035,17.035,0,1,1,0-34.07H323.76Z" style="fill:#e2d574"/><path d="M323.76,446.16a17.035,17.035,0,0,1,0,34.07H217.49a17.035,17.035,0,1,1,0-34.07Z" style="fill:#f8ec7d"/><rect x="278" y="187.69" width="33.81" height="87.4" style="fill:#e48e66"/><path d="M303.71,410.71c.19.27.39.53.58.8h-86.8a17.03,17.03,0,1,1,0-34.06h75.47c0,.42.01.84.02,1.26l.03,1.02c.02.3.03.59.05.89.09,1.66.26,3.29.5,4.91.05.39.11.78.18,1.16.11.71.24,1.42.39,2.12.09.44.18.87.28,1.31.19.83.4,1.67.63,2.49.08.28.16.57.25.85q.315,1.11.69,2.19c.12.36.24.72.38,1.08.08.25.18.51.28.76.32.86.66,1.72,1.03,2.56.13.3.26.59.4.89a57.134,57.134,0,0,0,4.02,7.38l.69,1.05C303.08,409.82,303.4,410.26,303.71,410.71Z" style="fill:#f8ec7d"/><path d="M292.96,377.23v.14H217.49a17.035,17.035,0,1,1,0-34.07h86.55A57.262,57.262,0,0,0,292.96,377.23Z" style="fill:#e2d574"/><path d="M196.35,65.15a40.89,40.89,0,1,1-40.88,40.89A40.894,40.894,0,0,1,196.35,65.15Zm4.19,42.02a4.19,4.19,0,1,0-4.19,4.19A4.182,4.182,0,0,0,200.54,107.17Z" style="fill:#f8ec7d"/><path d="M217.49,411.51H304.3a.558.558,0,0,1,.05.08H217.49a17.037,17.037,0,0,0-17.04,17.04,16.307,16.307,0,0,0,.3,3.14H28.66V398.61h172.3A17.038,17.038,0,0,0,217.49,411.51Z" style="fill:#e48e66"/><path d="M156.83,187.09a21.054,21.054,0,1,1-42.1.6H79.14a21.051,21.051,0,1,1-21.05-21.05h77.26C146.82,166.64,156.51,175.63,156.83,187.09Z" style="fill:#6fe3ff"/><polygon points="134 384.58 134 398.61 58.09 398.61 58.09 384.58 65.11 370.54 79.14 370.54 112.95 370.54 126.98 370.54 134 384.58" style="fill:#6fe3ff"/><rect x="79.14" y="187.69" width="33.81" height="182.85" style="fill:#e48e66"/><path d="M154.72,112.04H137.83a6,6,0,0,1,0-12h16.89a6,6,0,0,1,0,12Z" style="fill:#e2d574"/><path d="M254.96,112.04h-16.9a6,6,0,0,1,0-12h16.9a6,6,0,0,1,0,12Z" style="fill:#e2d574"/><path d="M350.45,370.86a10.25,10.25,0,1,1,10.26-10.25,6,6,0,0,0,6,6,5.813,5.813,0,0,0,5.775-6A21.774,21.774,0,0,0,356,339.188V335.42a6,6,0,0,0-12,0v3.769a22.284,22.284,0,0,0,6.338,43.671,10.254,10.254,0,0,1,.132,20.508c-.016,0-.018,0-.034,0s-.025,0-.041,0a10.257,10.257,0,0,1-10.2-10.248,6,6,0,0,0-6-6,6.2,6.2,0,0,0-6.224,6A22.52,22.52,0,0,0,344,414.541v4.5a6,6,0,0,0,12,0v-4.5a21.774,21.774,0,0,0,16.485-21.422A22.094,22.094,0,0,0,350.45,370.86Z" style="fill:#2561a1"/></svg>
